# xmcd CD database file
#
# Track frame offsets:
#	150
#	42017
#	82364
#	121929
#	136311
#	206800
#
# Disc length: 2996 seconds
#
# Revision: 0
# Processed by: cddbd v1.5.1PL0 Copyright (c) Steve Scherf et al.
# Submitted via: CDex 1.51
#
DISCID=530bb206
DTITLE=Mercan Dede - Sufi Dreams
DYEAR=1998
DGENRE=New Age
TTITLE0=Dream Of Shams
TTITLE1=Dream Of Lover
TTITLE2=Dream Of Adam
TTITLE3=Dreams Of The Sufi Saints
TTITLE4=Dream Of Perhan
TTITLE5=Dream Of The Dreams
EXTD=YEAR: 1998
EXTT0=
EXTT1=
EXTT2=
EXTT3=
EXTT4=
EXTT5=
PLAYORDER=
